<svg width="32" height="32" viewBox="0 0 32 32" fill="none" xmlns="http://www.w3.org/2000/svg">
<path d="M31.3307 8.24799C31.1499 7.56702 30.7934 6.9455 30.2968 6.44567C29.8003 5.94584 29.1811 5.58524 28.5013 5.39999C26.0067 4.72665 16 4.72665 16 4.72665C16 4.72665 5.99333 4.72665 3.49733 5.39999C2.81788 5.58557 2.19906 5.9463 1.70277 6.4461C1.20648 6.94589 0.850122 7.56724 0.669333 8.24799C0 10.76 0 16 0 16C0 16 0 21.24 0.669333 23.752C0.850115 24.433 1.20663 25.0545 1.70319 25.5543C2.19974 26.0541 2.8189 26.4147 3.49867 26.6C5.99333 27.2733 16 27.2733 16 27.2733C16 27.2733 26.0067 27.2733 28.5027 26.6C29.1825 26.4149 29.8017 26.0543 30.2983 25.5544C30.7949 25.0546 31.1513 24.433 31.332 23.752C32 21.24 32 16 32 16C32 16 32 10.76 31.3307 8.24799ZM12.7267 20.7573V11.2427L21.0907 16L12.7267 20.7573Z" fill="url(#paint0_linear_1_408)"/>
<defs>
<linearGradient id="paint0_linear_1_408" x1="16" y1="4.72665" x2="16" y2="27.2733" gradientUnits="userSpaceOnUse">
<stop stop-color="#FFB800"/>
<stop offset="1" stop-color="#F2A20D"/>
</linearGradient>
</defs>
</svg>
