<svg width="18" height="18" viewBox="0 0 18 18" fill="none" xmlns="http://www.w3.org/2000/svg">
<g clip-path="url(#clip0_1_391)">
<path d="M9 1.50002C5.85 1.50002 3 3.91502 3 7.65002C3 10.035 4.8375 12.84 8.505 16.0725C8.79 16.32 9.2175 16.32 9.5025 16.0725C13.1625 12.84 15 10.035 15 7.65002C15 3.91502 12.15 1.50002 9 1.50002ZM9 9.00002C8.175 9.00002 7.5 8.32502 7.5 7.50002C7.5 6.67502 8.175 6.00002 9 6.00002C9.825 6.00002 10.5 6.67502 10.5 7.50002C10.5 8.32502 9.825 9.00002 9 9.00002Z" fill="url(#paint0_linear_1_391)"/>
</g>
<defs>
<linearGradient id="paint0_linear_1_391" x1="9" y1="1.50002" x2="9" y2="16.2581" gradientUnits="userSpaceOnUse">
<stop stop-color="#FFB800"/>
<stop offset="1" stop-color="#F2A20D"/>
</linearGradient>
<clipPath id="clip0_1_391">
<rect width="18" height="18" fill="white"/>
</clipPath>
</defs>
</svg>
