<svg width="18" height="18" viewBox="0 0 18 18" fill="none" xmlns="http://www.w3.org/2000/svg">
<g clip-path="url(#clip0_1_401)">
<path d="M14.4225 11.4451L12.5175 11.2276C12.06 11.1751 11.61 11.3326 11.2875 11.6551L9.90747 13.0351C7.78497 11.9551 6.04497 10.2226 4.96497 8.09255L6.35247 6.70505C6.67497 6.38255 6.83247 5.93255 6.77997 5.47505L6.56247 3.58505C6.47247 2.82755 5.83497 2.25755 5.06997 2.25755H3.77247C2.92497 2.25755 2.21997 2.96255 2.27247 3.81005C2.66997 10.2151 7.79247 15.3301 14.19 15.7276C15.0375 15.7801 15.7425 15.0751 15.7425 14.2276V12.9301C15.75 12.1726 15.18 11.5351 14.4225 11.4451Z" fill="url(#paint0_linear_1_401)"/>
</g>
<defs>
<linearGradient id="paint0_linear_1_401" x1="9.00613" y1="2.25755" x2="9.00613" y2="15.7303" gradientUnits="userSpaceOnUse">
<stop stop-color="#FFB800"/>
<stop offset="1" stop-color="#F2A20D"/>
</linearGradient>
<clipPath id="clip0_1_401">
<rect width="18" height="18" fill="white"/>
</clipPath>
</defs>
</svg>
